<svg width="800px" height="800px" viewBox="0 0 24 24" fill="none" xmlns="http://www.w3.org/2000/svg">
<path d="M9 22H15C20 22 22 20 22 15V9C22 4 20 2 15 2H9C4 2 2 4 2 9V15C2 20 4 22 9 22Z" stroke="#292D32" stroke-width="1.5" stroke-linecap="round" stroke-linejoin="round"/>
<path d="M15.5 9.75C16.6046 9.75 17.5 8.85457 17.5 7.75C17.5 6.64543 16.6046 5.75 15.5 5.75C14.3954 5.75 13.5 6.64543 13.5 7.75C13.5 8.85457 14.3954 9.75 15.5 9.75Z" stroke="#292D32" stroke-width="1.5" stroke-linecap="round" stroke-linejoin="round"/>
<path d="M8.5 9.75C9.60457 9.75 10.5 8.85457 10.5 7.75C10.5 6.64543 9.60457 5.75 8.5 5.75C7.39543 5.75 6.5 6.64543 6.5 7.75C6.5 8.85457 7.39543 9.75 8.5 9.75Z" stroke="#292D32" stroke-width="1.5" stroke-linecap="round" stroke-linejoin="round"/>
<path d="M8.5 15.75C9.60457 15.75 10.5 14.8546 10.5 13.75C10.5 12.6454 9.60457 11.75 8.5 11.75C7.39543 11.75 6.5 12.6454 6.5 13.75C6.5 14.8546 7.39543 15.75 8.5 15.75Z" stroke="#292D32" stroke-width="1.5" stroke-linecap="round" stroke-linejoin="round"/>
<path d="M15.5 15.75C16.6046 15.75 17.5 14.8546 17.5 13.75C17.5 12.6454 16.6046 11.75 15.5 11.75C14.3954 11.75 13.5 12.6454 13.5 13.75C13.5 14.8546 14.3954 15.75 15.5 15.75Z" stroke="#292D32" stroke-width="1.5" stroke-linecap="round" stroke-linejoin="round"/>
<path d="M8.5 18.25C9.60457 18.25 10.5 17.3546 10.5 16.25C10.5 15.1454 9.60457 14.25 8.5 14.25C7.39543 14.25 6.5 15.1454 6.5 16.25C6.5 17.3546 7.39543 18.25 8.5 18.25Z" stroke="#292D32" stroke-width="1.5" stroke-linecap="round" stroke-linejoin="round"/>
<path d="M15.5 18.25C16.6046 18.25 17.5 17.3546 17.5 16.25C17.5 15.1454 16.6046 14.25 15.5 14.25C14.3954 14.25 13.5 15.1454 13.5 16.25C13.5 17.3546 14.3954 18.25 15.5 18.25Z" stroke="#292D32" stroke-width="1.5" stroke-linecap="round" stroke-linejoin="round"/>
</svg>
